<svg xmlns="http://www.w3.org/2000/svg" fill="none" viewBox="0 0 251 38" height="38" width="251">
  <rect fill="#663399" rx="4.6297" height="37.0376" width="250.004" y="0.458252" x="0.0383301"></rect>
  <ellipse fill="white" ry="3.90817" rx="3.90817" cy="14.5341" cx="17.758"></ellipse>
  <ellipse fill="#663399" ry="3.4931" rx="3.4931" cy="20.3027" cx="16.9406"></ellipse>
  <ellipse fill="#663399" ry="6.2308" rx="6.2308" cy="17.7559" cx="25.7791"></ellipse>
  <rect fill="#663399" height="3.47276" width="9.49808" y="20.324" x="16.9404"></rect>
  <ellipse fill="#663399" ry="1.14845" rx="1.14845" cy="17.3872" cx="19.3194"></ellipse>
  <path fill="white" d="M30.6129 14.6036C29.5616 13.0191 27.7617 11.9746 25.7177 11.9746C22.7302 11.9746 20.4847 14.2331 20.1841 16.1587C20.1164 16.5925 19.949 16.8771 19.6619 17.1814C19.4262 17.3357 19.2452 17.3719 19.032 17.3357C18.8872 17.311 18.7645 17.2595 18.6277 17.202C18.3598 17.0894 18.0378 16.954 17.3894 16.954C15.5718 16.954 14.0983 18.4275 14.0983 20.2451C14.0983 22.0627 15.5718 23.5362 17.3894 23.5362H21.3238C21.3439 24.1042 21.4188 24.6583 21.5434 25.1934L17.3896 25.1934C14.6602 25.1934 12.4475 22.9807 12.4475 20.2513C12.4475 17.5218 14.6602 15.3092 17.3896 15.3092C17.7933 15.3092 18.1856 15.3576 18.5612 15.4489C19.5533 12.4977 22.3423 10.3718 25.6279 10.3718C28.7294 10.3718 31.3885 12.2662 32.5112 14.9611C31.9042 14.7742 31.2687 14.6523 30.6129 14.6036Z" clip-rule="evenodd" fill-rule="evenodd"></path>
  <ellipse fill="white" ry="1.09703" rx="1.09703" cy="7.95128" cx="18.8551"></ellipse>
  <ellipse fill="white" ry="1.09703" rx="1.09703" cy="14.5336" cx="11.1761"></ellipse>
  <ellipse fill="white" ry="1.09703" rx="1.09703" cy="9.0504" cx="13.3705"></ellipse>
  <path fill="#663399" d="M35.5014 23.328H32.0291V24.3201H34.4101C34.0628 25.8082 32.9716 27.0483 31.533 27.5443L25.8286 21.8399C26.4238 20.1038 28.1104 18.8637 30.0449 18.8637C31.533 18.8637 32.8723 19.6077 33.7156 20.7486L34.4597 20.1038C33.4676 18.7645 31.8803 17.8716 30.0449 17.8716C27.4655 17.8716 25.2829 19.7069 24.7373 22.1375L31.285 28.6852C33.666 28.09 35.5014 25.9074 35.5014 23.328Z"></path>
  <path fill="#663399" d="M24.5884 23.3777C24.5884 24.7666 25.134 26.1059 26.1757 27.1476C27.2174 28.1893 28.6063 28.7349 29.9456 28.7349L24.5884 23.3777Z"></path>
  <path fill="white" d="M30.0449 16.3835C26.2254 16.3835 23.1003 19.5086 23.1003 23.3281C23.1003 27.1476 26.2254 30.2726 30.0449 30.2726C33.8644 30.2726 36.9894 27.1476 36.9894 23.3281C36.9894 19.5086 33.8644 16.3835 30.0449 16.3835ZM26.1758 27.1972C25.1341 26.1555 24.5885 24.7666 24.5885 23.4273L29.9953 28.7845C28.6064 28.7349 27.2175 28.2389 26.1758 27.1972ZM31.2354 28.6357L24.7373 22.1376C25.2829 19.707 27.4655 17.8717 30.0449 17.8717C31.8802 17.8717 33.4676 18.7645 34.4596 20.1038L33.7156 20.7487C32.8723 19.6078 31.533 18.8637 30.0449 18.8637C28.1103 18.8637 26.4734 20.1038 25.8286 21.84L31.533 27.5444C32.9715 27.0484 34.0628 25.8083 34.41 24.3202H32.029V23.3281H35.5013C35.5013 25.9075 33.666 28.0901 31.2354 28.6357Z"></path>
  <line stroke-width="1.15742" stroke="#542C85" y2="37.4958" x2="46.9139" y1="0.458252" x1="46.9139"></line>
  <path fill="white" d="M60.7505 24.875C64.3412 24.875 66.4702 22.6539 66.4702 18.9711C66.4702 15.2999 64.3412 13.0903 60.8311 13.0903H56.7571V24.875H60.7505ZM58.8919 23.0279V14.9374H60.7102C63.104 14.9374 64.3527 16.2724 64.3527 18.9711C64.3527 21.6814 63.104 23.0279 60.6469 23.0279H58.8919ZM72.3194 25.0476C74.3794 25.0476 75.795 24.0406 76.1633 22.5043L74.2183 22.2856C73.9364 23.0336 73.2459 23.4249 72.3482 23.4249C71.0017 23.4249 70.1098 22.5388 70.0925 21.0254H76.2496V20.3867C76.2496 17.2852 74.3852 15.9214 72.2101 15.9214C69.6782 15.9214 68.0268 17.78 68.0268 20.5075C68.0268 23.2811 69.6552 25.0476 72.3194 25.0476ZM70.0983 19.6214C70.1616 18.4935 70.996 17.5441 72.2389 17.5441C73.4357 17.5441 74.2413 18.4187 74.2529 19.6214H70.0983ZM78.0118 28.1894H80.0948V23.4825H80.1812C80.5092 24.1269 81.1939 25.0304 82.713 25.0304C84.7961 25.0304 86.3555 23.3789 86.3555 20.4673C86.3555 17.5211 84.75 15.9214 82.7073 15.9214C81.1479 15.9214 80.4976 16.8593 80.1812 17.4981H80.0603V16.0365H78.0118V28.1894ZM80.0546 20.4557C80.0546 18.741 80.7911 17.6304 82.1318 17.6304C83.5186 17.6304 84.2321 18.81 84.2321 20.4557C84.2321 22.113 83.5071 23.3214 82.1318 23.3214C80.8026 23.3214 80.0546 22.1705 80.0546 20.4557ZM90.2223 13.0903H88.1393V24.875H90.2223V13.0903ZM96.2197 25.0476C98.8091 25.0476 100.455 23.2235 100.455 20.4903C100.455 17.7513 98.8091 15.9214 96.2197 15.9214C93.6303 15.9214 91.9845 17.7513 91.9845 20.4903C91.9845 23.2235 93.6303 25.0476 96.2197 25.0476ZM96.2312 23.3789C94.7984 23.3789 94.0963 22.1015 94.0963 20.4845C94.0963 18.8676 94.7984 17.5729 96.2312 17.5729C97.641 17.5729 98.343 18.8676 98.343 20.4845C98.343 22.1015 97.641 23.3789 96.2312 23.3789ZM103.217 28.1894C104.84 28.1894 105.777 27.3551 106.278 25.9453L109.828 16.048L107.602 16.0365L105.559 22.7114H105.467L103.43 16.0365H101.22L104.425 25.0591L104.247 25.5367C103.861 26.5437 103.251 26.6128 102.342 26.3481L101.859 27.9708C102.141 28.0859 102.647 28.1894 103.217 28.1894ZM119.707 16.0365H117.964V13.9189H115.88V16.0365H114.626V17.6477H115.88V22.5618C115.869 24.2248 117.077 25.0419 118.643 24.9958C119.235 24.9786 119.644 24.8635 119.868 24.7887L119.517 23.1602C119.402 23.189 119.166 23.2408 118.907 23.2408C118.384 23.2408 117.964 23.0567 117.964 22.2165V17.6477H119.707V16.0365ZM125.21 25.0476C127.799 25.0476 129.445 23.2235 129.445 20.4903C129.445 17.7513 127.799 15.9214 125.21 15.9214C122.62 15.9214 120.974 17.7513 120.974 20.4903C120.974 23.2235 122.62 25.0476 125.21 25.0476ZM125.221 23.3789C123.788 23.3789 123.086 22.1015 123.086 20.4845C123.086 18.8676 123.788 17.5729 125.221 17.5729C126.631 17.5729 127.333 18.8676 127.333 20.4845C127.333 22.1015 126.631 23.3789 125.221 23.3789ZM143.219 16.8536H145.394C145.031 14.5404 143.029 12.9292 140.422 12.9292C137.338 12.9292 135.025 15.1964 135.025 18.9942C135.025 22.7229 137.234 25.0361 140.486 25.0361C143.403 25.0361 145.492 23.1602 145.492 20.122V18.7065H140.71V20.3752H143.426C143.391 22.0554 142.269 23.12 140.497 23.12C138.523 23.12 137.171 21.6411 137.171 18.9711C137.171 16.3184 138.546 14.8454 140.451 14.8454C141.872 14.8454 142.839 15.6049 143.219 16.8536ZM150.007 25.0534C151.394 25.0534 152.223 24.4032 152.603 23.6609H152.672V24.875H154.674V18.9596C154.674 16.6234 152.769 15.9214 151.083 15.9214C149.225 15.9214 147.798 16.75 147.337 18.3612L149.282 18.6374C149.49 18.0332 150.076 17.5153 151.095 17.5153C152.062 17.5153 152.591 18.0102 152.591 18.8791V18.9136C152.591 19.512 151.964 19.5408 150.404 19.7077C148.69 19.8918 147.05 20.404 147.05 22.3949C147.05 24.1327 148.321 25.0534 150.007 25.0534ZM150.548 23.5228C149.679 23.5228 149.058 23.1257 149.058 22.3604C149.058 21.5606 149.754 21.2268 150.686 21.0945C151.233 21.0197 152.326 20.8816 152.597 20.6629V21.7044C152.597 22.6884 151.803 23.5228 150.548 23.5228ZM161.182 16.0365H159.439V13.9189H157.356V16.0365H156.101V17.6477H157.356V22.5618C157.344 24.2248 158.552 25.0419 160.118 24.9958C160.71 24.9786 161.119 24.8635 161.343 24.7887L160.992 23.1602C160.877 23.189 160.641 23.2408 160.382 23.2408C159.859 23.2408 159.439 23.0567 159.439 22.2165V17.6477H161.182V16.0365ZM169.783 18.3727C169.496 16.8766 168.299 15.9214 166.227 15.9214C164.098 15.9214 162.648 16.9687 162.654 18.6029C162.648 19.8918 163.442 20.7435 165.14 21.0945L166.647 21.4109C167.459 21.5893 167.838 21.9173 167.838 22.4179C167.838 23.0221 167.182 23.4767 166.193 23.4767C165.237 23.4767 164.616 23.0624 164.438 22.2683L162.406 22.464C162.665 24.0867 164.029 25.0476 166.198 25.0476C168.408 25.0476 169.967 23.9025 169.973 22.228C169.967 20.9679 169.156 20.1968 167.487 19.8343L165.98 19.512C165.082 19.3106 164.725 18.9999 164.731 18.4878C164.725 17.8894 165.387 17.475 166.256 17.475C167.217 17.475 167.723 17.9987 167.884 18.5799L169.783 18.3727ZM171.783 24.875H173.831V23.4825H173.952C174.28 24.1269 174.965 25.0304 176.484 25.0304C178.567 25.0304 180.127 23.3789 180.127 20.4673C180.127 17.5211 178.521 15.9214 176.478 15.9214C174.919 15.9214 174.269 16.8593 173.952 17.4981H173.866V13.0903H171.783V24.875ZM173.826 20.4557C173.826 18.741 174.562 17.6304 175.903 17.6304C177.29 17.6304 178.003 18.81 178.003 20.4557C178.003 22.113 177.278 23.3214 175.903 23.3214C174.574 23.3214 173.826 22.1705 173.826 20.4557ZM182.891 28.1894C184.514 28.1894 185.452 27.3551 185.953 25.9453L189.503 16.048L187.276 16.0365L185.233 22.7114H185.141L183.104 16.0365H180.895L184.1 25.0591L183.921 25.5367C183.536 26.5437 182.926 26.6128 182.017 26.3481L181.533 27.9708C181.815 28.0859 182.322 28.1894 182.891 28.1894ZM205.147 17.0665C204.785 14.4483 202.771 12.9292 200.159 12.9292C197.08 12.9292 194.761 15.1733 194.761 18.9827C194.761 22.7862 197.051 25.0361 200.159 25.0361C202.961 25.0361 204.819 23.2235 205.147 20.9736L202.995 20.9621C202.725 22.3431 201.597 23.12 200.187 23.12C198.277 23.12 196.907 21.6872 196.907 18.9827C196.907 16.3242 198.265 14.8454 200.193 14.8454C201.626 14.8454 202.748 15.6567 202.995 17.0665H205.147ZM209.093 13.0903H207.01V24.875H209.093V13.0903ZM215.091 25.0476C217.68 25.0476 219.326 23.2235 219.326 20.4903C219.326 17.7513 217.68 15.9214 215.091 15.9214C212.501 15.9214 210.856 17.7513 210.856 20.4903C210.856 23.2235 212.501 25.0476 215.091 25.0476ZM215.102 23.3789C213.669 23.3789 212.967 22.1015 212.967 20.4845C212.967 18.8676 213.669 17.5729 215.102 17.5729C216.512 17.5729 217.214 18.8676 217.214 20.4845C217.214 22.1015 216.512 23.3789 215.102 23.3789ZM226.727 21.1578C226.727 22.5043 225.766 23.1717 224.846 23.1717C223.844 23.1717 223.177 22.464 223.177 21.3419V16.0365H221.094V21.6641C221.094 23.7874 222.302 24.9901 224.04 24.9901C225.364 24.9901 226.296 24.2938 226.699 23.3041H226.791V24.875H228.81V16.0365H226.727V21.1578ZM234.232 25.0304C235.751 25.0304 236.436 24.1269 236.764 23.4825H236.891V24.875H238.939V13.0903H236.85V17.4981H236.764C236.448 16.8593 235.797 15.9214 234.238 15.9214C232.195 15.9214 230.59 17.5211 230.59 20.4673C230.59 23.3789 232.149 25.0304 234.232 25.0304ZM234.813 23.3214C233.438 23.3214 232.713 22.113 232.713 20.4557C232.713 18.81 233.427 17.6304 234.813 17.6304C236.154 17.6304 236.891 18.741 236.891 20.4557C236.891 22.1705 236.143 23.3214 234.813 23.3214Z"></path>
</svg>
